<svg width="403" height="62" viewBox="0 0 403 62" fill="none" xmlns="http://www.w3.org/2000/svg">
<g filter="url(#filter0_i_0_10)">
<path d="M379.04 55.1616C377.451 58.809 373.851 61.1675 369.873 61.1675H10C4.47714 61.1675 0 56.6903 0 51.1675V10.1675C0 4.64463 4.47714 0.16748 10 0.16748H387.735C394.94 0.16748 399.781 7.55637 396.903 14.1616L379.04 55.1616Z" fill="#21212B"/>
</g>
<path opacity="0.3" d="M23.5381 25.2563H32.9512V26.8384H25.2432V30.7583H32.3711V32.2524H25.2432V36.6294H33.083V38.1675H23.5381V25.2563ZM34.806 28.7544H36.3705V30.0903C36.7455 29.6274 37.0853 29.2905 37.39 29.0796C37.9115 28.7222 38.5033 28.5435 39.1654 28.5435C39.9154 28.5435 40.5189 28.728 40.9759 29.0972C41.2338 29.3081 41.4681 29.6187 41.6791 30.0288C42.0306 29.5249 42.4437 29.1528 42.9183 28.9126C43.3929 28.6665 43.9261 28.5435 44.5179 28.5435C45.7836 28.5435 46.6449 29.0005 47.1019 29.9146C47.348 30.4067 47.4711 31.0688 47.4711 31.9009V38.1675H45.8275V31.6284C45.8275 31.0015 45.6693 30.5708 45.3529 30.3364C45.0423 30.1021 44.6615 29.9849 44.2103 29.9849C43.5892 29.9849 43.0531 30.1929 42.6019 30.6089C42.1566 31.0249 41.9339 31.7192 41.9339 32.6919V38.1675H40.3255V32.0239C40.3255 31.3853 40.2494 30.9194 40.097 30.6265C39.8568 30.187 39.4086 29.9673 38.7523 29.9673C38.1546 29.9673 37.6097 30.1987 37.1175 30.6616C36.6312 31.1245 36.388 31.9624 36.388 33.1753V38.1675H34.806V28.7544ZM50.653 35.6626C50.653 36.1196 50.82 36.48 51.154 36.7437C51.488 37.0073 51.8835 37.1392 52.3405 37.1392C52.8972 37.1392 53.4363 37.0103 53.9577 36.7524C54.8366 36.3247 55.2761 35.6245 55.2761 34.6519V33.3774C55.0827 33.5005 54.8337 33.603 54.529 33.6851C54.2243 33.7671 53.9255 33.8257 53.6325 33.8608L52.6745 33.9839C52.1003 34.0601 51.6696 34.1802 51.3825 34.3442C50.8962 34.6196 50.653 35.0591 50.653 35.6626ZM54.4851 32.4634C54.8484 32.4165 55.0915 32.2642 55.2146 32.0063C55.2849 31.8657 55.32 31.6636 55.32 31.3999C55.32 30.8608 55.1267 30.4712 54.74 30.231C54.3591 29.9849 53.8113 29.8618 53.0964 29.8618C52.2702 29.8618 51.6843 30.0845 51.3386 30.5298C51.1452 30.7759 51.0193 31.1421 50.9607 31.6284H49.4841C49.5134 30.4683 49.8884 29.6626 50.6091 29.2114C51.3357 28.7544 52.1765 28.5259 53.1316 28.5259C54.239 28.5259 55.1384 28.7368 55.8298 29.1587C56.5154 29.5806 56.8581 30.2368 56.8581 31.1274V36.5503C56.8581 36.7144 56.8904 36.8462 56.9548 36.9458C57.0251 37.0454 57.1687 37.0952 57.3855 37.0952C57.4558 37.0952 57.5349 37.0923 57.6228 37.0864C57.7107 37.0747 57.8044 37.0601 57.904 37.0425V38.2114C57.6579 38.2817 57.4704 38.3257 57.3415 38.3433C57.2126 38.3608 57.0368 38.3696 56.8142 38.3696C56.2693 38.3696 55.8738 38.1763 55.6277 37.7896C55.4988 37.5845 55.4079 37.2944 55.3552 36.9194C55.0329 37.3413 54.57 37.7075 53.9665 38.0181C53.363 38.3286 52.698 38.4839 51.9714 38.4839C51.0984 38.4839 50.3835 38.2202 49.8269 37.6929C49.2761 37.1597 49.0007 36.4946 49.0007 35.6978C49.0007 34.8247 49.2732 34.1479 49.8181 33.6675C50.363 33.187 51.0779 32.8911 51.9626 32.7798L54.4851 32.4634ZM59.0997 28.7983H60.7081V38.1675H59.0997V28.7983ZM59.0997 25.2563H60.7081V27.0493H59.0997V25.2563ZM62.7914 25.2563H64.3735V38.1675H62.7914V25.2563ZM72.258 35.6626C72.258 36.1196 72.425 36.48 72.7589 36.7437C73.0929 37.0073 73.4884 37.1392 73.9455 37.1392C74.5021 37.1392 75.0412 37.0103 75.5627 36.7524C76.4416 36.3247 76.881 35.6245 76.881 34.6519V33.3774C76.6877 33.5005 76.4386 33.603 76.1339 33.6851C75.8293 33.7671 75.5304 33.8257 75.2375 33.8608L74.2795 33.9839C73.7052 34.0601 73.2746 34.1802 72.9875 34.3442C72.5011 34.6196 72.258 35.0591 72.258 35.6626ZM76.09 32.4634C76.4533 32.4165 76.6964 32.2642 76.8195 32.0063C76.8898 31.8657 76.925 31.6636 76.925 31.3999C76.925 30.8608 76.7316 30.4712 76.3449 30.231C75.964 29.9849 75.4162 29.8618 74.7013 29.8618C73.8752 29.8618 73.2892 30.0845 72.9435 30.5298C72.7502 30.7759 72.6242 31.1421 72.5656 31.6284H71.089C71.1183 30.4683 71.4933 29.6626 72.214 29.2114C72.9406 28.7544 73.7814 28.5259 74.7365 28.5259C75.8439 28.5259 76.7433 28.7368 77.4347 29.1587C78.1203 29.5806 78.463 30.2368 78.463 31.1274V36.5503C78.463 36.7144 78.4953 36.8462 78.5597 36.9458C78.63 37.0454 78.7736 37.0952 78.9904 37.0952C79.0607 37.0952 79.1398 37.0923 79.2277 37.0864C79.3156 37.0747 79.4093 37.0601 79.5089 37.0425V38.2114C79.2629 38.2817 79.0754 38.3257 78.9464 38.3433C78.8175 38.3608 78.6418 38.3696 78.4191 38.3696C77.8742 38.3696 77.4787 38.1763 77.2326 37.7896C77.1037 37.5845 77.0129 37.2944 76.9601 36.9194C76.6379 37.3413 76.175 37.7075 75.5714 38.0181C74.9679 38.3286 74.3029 38.4839 73.5763 38.4839C72.7033 38.4839 71.9884 38.2202 71.4318 37.6929C70.881 37.1597 70.6056 36.4946 70.6056 35.6978C70.6056 34.8247 70.8781 34.1479 71.423 33.6675C71.9679 33.187 72.6828 32.8911 73.5675 32.7798L76.09 32.4634ZM81.7066 33.5708C81.7066 34.5786 81.9204 35.4224 82.3482 36.1021C82.7759 36.7817 83.4614 37.1216 84.4048 37.1216C85.1372 37.1216 85.7378 36.8081 86.2066 36.1812C86.6812 35.5483 86.9185 34.6431 86.9185 33.4653C86.9185 32.2759 86.6753 31.397 86.189 30.8286C85.7027 30.2544 85.1021 29.9673 84.3872 29.9673C83.5904 29.9673 82.9429 30.272 82.4448 30.8813C81.9527 31.4907 81.7066 32.3872 81.7066 33.5708ZM84.0884 28.5874C84.8091 28.5874 85.4126 28.7397 85.8989 29.0444C86.1802 29.2202 86.4995 29.5278 86.857 29.9673V25.2124H88.3775V38.1675H86.9536V36.8579C86.5845 37.438 86.148 37.8569 85.6441 38.1147C85.1402 38.3726 84.563 38.5015 83.9126 38.5015C82.8638 38.5015 81.9556 38.062 81.188 37.1831C80.4204 36.2983 80.0366 35.1235 80.0366 33.6587C80.0366 32.2876 80.3853 31.1011 81.0825 30.0991C81.7857 29.0913 82.7876 28.5874 84.0884 28.5874ZM91.3661 33.5708C91.3661 34.5786 91.58 35.4224 92.0077 36.1021C92.4354 36.7817 93.121 37.1216 94.0643 37.1216C94.7968 37.1216 95.3973 36.8081 95.8661 36.1812C96.3407 35.5483 96.578 34.6431 96.578 33.4653C96.578 32.2759 96.3348 31.397 95.8485 30.8286C95.3622 30.2544 94.7616 29.9673 94.0468 29.9673C93.2499 29.9673 92.6024 30.272 92.1044 30.8813C91.6122 31.4907 91.3661 32.3872 91.3661 33.5708ZM93.7479 28.5874C94.4686 28.5874 95.0722 28.7397 95.5585 29.0444C95.8397 29.2202 96.1591 29.5278 96.5165 29.9673V25.2124H98.037V38.1675H96.6132V36.8579C96.244 37.438 95.8075 37.8569 95.3036 38.1147C94.7997 38.3726 94.2225 38.5015 93.5722 38.5015C92.5233 38.5015 91.6151 38.062 90.8475 37.1831C90.08 36.2983 89.6962 35.1235 89.6962 33.6587C89.6962 32.2876 90.0448 31.1011 90.7421 30.0991C91.4452 29.0913 92.4472 28.5874 93.7479 28.5874ZM100.068 28.7544H101.571V30.3804C101.694 30.064 101.995 29.6802 102.476 29.229C102.956 28.772 103.51 28.5435 104.137 28.5435C104.166 28.5435 104.216 28.5464 104.286 28.5522C104.357 28.5581 104.477 28.5698 104.647 28.5874V30.2573C104.553 30.2397 104.465 30.228 104.383 30.2222C104.307 30.2163 104.222 30.2134 104.128 30.2134C103.331 30.2134 102.719 30.4712 102.291 30.9868C101.864 31.4966 101.65 32.0854 101.65 32.7534V38.1675H100.068V28.7544ZM109.578 28.5435C110.246 28.5435 110.893 28.7017 111.52 29.0181C112.147 29.3286 112.625 29.7329 112.953 30.231C113.269 30.7056 113.48 31.2593 113.586 31.8921C113.679 32.3257 113.726 33.0171 113.726 33.9663H106.827C106.856 34.9214 107.082 35.689 107.504 36.269C107.925 36.8433 108.579 37.1304 109.463 37.1304C110.29 37.1304 110.949 36.8579 111.441 36.313C111.722 35.9966 111.921 35.6304 112.039 35.2144H113.594C113.553 35.5601 113.416 35.9468 113.181 36.3745C112.953 36.7964 112.695 37.1421 112.408 37.4116C111.927 37.8804 111.333 38.1968 110.624 38.3608C110.243 38.4546 109.812 38.5015 109.332 38.5015C108.16 38.5015 107.167 38.0767 106.352 37.2271C105.538 36.3716 105.13 35.1763 105.13 33.6411C105.13 32.1294 105.541 30.9019 106.361 29.9585C107.181 29.0151 108.254 28.5435 109.578 28.5435ZM112.1 32.7095C112.036 32.0239 111.886 31.4761 111.652 31.0659C111.218 30.3042 110.495 29.9233 109.481 29.9233C108.754 29.9233 108.145 30.187 107.653 30.7144C107.161 31.2358 106.9 31.9009 106.871 32.7095H112.1ZM116.258 35.2144C116.305 35.7417 116.436 36.146 116.653 36.4272C117.052 36.937 117.743 37.1919 118.728 37.1919C119.313 37.1919 119.829 37.0659 120.274 36.814C120.72 36.5562 120.942 36.1606 120.942 35.6274C120.942 35.2231 120.764 34.9155 120.406 34.7046C120.178 34.5757 119.727 34.4263 119.053 34.2563L117.796 33.9399C116.993 33.7407 116.401 33.5181 116.02 33.272C115.341 32.8442 115.001 32.2524 115.001 31.4966C115.001 30.606 115.32 29.8853 115.959 29.3345C116.603 28.7837 117.468 28.5083 118.552 28.5083C119.97 28.5083 120.992 28.9243 121.619 29.7563C122.012 30.2837 122.202 30.8521 122.19 31.4614H120.696C120.667 31.104 120.541 30.7788 120.318 30.4858C119.955 30.0698 119.325 29.8618 118.429 29.8618C117.831 29.8618 117.377 29.9761 117.066 30.2046C116.762 30.4331 116.609 30.7349 116.609 31.1099C116.609 31.52 116.811 31.8481 117.216 32.0942C117.45 32.2407 117.796 32.3696 118.253 32.481L119.299 32.7358C120.436 33.0112 121.197 33.2778 121.584 33.5356C122.199 33.9399 122.507 34.5757 122.507 35.4429C122.507 36.2808 122.187 37.0044 121.549 37.6138C120.916 38.2231 119.949 38.5278 118.648 38.5278C117.248 38.5278 116.255 38.2114 115.669 37.5786C115.089 36.9399 114.778 36.1519 114.737 35.2144H116.258ZM124.898 35.2144C124.945 35.7417 125.076 36.146 125.293 36.4272C125.692 36.937 126.383 37.1919 127.368 37.1919C127.953 37.1919 128.469 37.0659 128.914 36.814C129.36 36.5562 129.582 36.1606 129.582 35.6274C129.582 35.2231 129.404 34.9155 129.046 34.7046C128.818 34.5757 128.367 34.4263 127.693 34.2563L126.436 33.9399C125.633 33.7407 125.041 33.5181 124.66 33.272C123.981 32.8442 123.641 32.2524 123.641 31.4966C123.641 30.606 123.96 29.8853 124.599 29.3345C125.243 28.7837 126.108 28.5083 127.192 28.5083C128.61 28.5083 129.632 28.9243 130.259 29.7563C130.652 30.2837 130.842 30.8521 130.83 31.4614H129.336C129.307 31.104 129.181 30.7788 128.958 30.4858C128.595 30.0698 127.965 29.8618 127.069 29.8618C126.471 29.8618 126.017 29.9761 125.706 30.2046C125.402 30.4331 125.249 30.7349 125.249 31.1099C125.249 31.52 125.451 31.8481 125.856 32.0942C126.09 32.2407 126.436 32.3696 126.893 32.481L127.939 32.7358C129.076 33.0112 129.837 33.2778 130.224 33.5356C130.839 33.9399 131.147 34.5757 131.147 35.4429C131.147 36.2808 130.827 37.0044 130.189 37.6138C129.556 38.2231 128.589 38.5278 127.288 38.5278C125.888 38.5278 124.895 38.2114 124.309 37.5786C123.729 36.9399 123.418 36.1519 123.377 35.2144H124.898Z" fill="#AEAEAE"/>
<defs>
<filter id="filter0_i_0_10" x="0" y="0.16748" width="400.746" height="61" filterUnits="userSpaceOnUse" color-interpolation-filters="sRGB">
<feFlood flood-opacity="0" result="BackgroundImageFix"/>
<feBlend mode="normal" in="SourceGraphic" in2="BackgroundImageFix" result="shape"/>
<feColorMatrix in="SourceAlpha" type="matrix" values="0 0 0 0 0 0 0 0 0 0 0 0 0 0 0 0 0 0 127 0" result="hardAlpha"/>
<feOffset dx="3"/>
<feGaussianBlur stdDeviation="2.5"/>
<feComposite in2="hardAlpha" operator="arithmetic" k2="-1" k3="1"/>
<feColorMatrix type="matrix" values="0 0 0 0 0 0 0 0 0 0 0 0 0 0 0 0 0 0 0.5 0"/>
<feBlend mode="normal" in2="shape" result="effect1_innerShadow_0_10"/>
</filter>
</defs>
</svg>
