<svg width="20" height="20" viewBox="0 0 20 20" fill="none" xmlns="http://www.w3.org/2000/svg">
<g clip-path="url(#clip0_0_537)">
<g filter="url(#filter0_i_0_537)">
<path d="M6.4363 4.00947H4.65412C6.13927 2.72234 7.92145 2.02927 9.90165 2.02927C10.1987 2.02927 10.4957 2.02927 10.7927 2.12828C11.2878 2.22729 11.7828 1.83125 11.8818 1.23719C11.9809 0.742142 11.5848 0.247092 10.9908 0.148082C10.5947 0.0490722 10.2977 0.0490723 9.90165 0.0490723C7.52541 0.0490723 5.24818 0.940162 3.466 2.42531V1.03917C3.466 0.445112 3.06996 0.0490723 2.4759 0.0490723C1.88184 0.0490723 1.4858 0.445112 1.4858 1.03917V4.99957C1.4858 5.59363 1.88184 5.98967 2.4759 5.98967H6.4363C7.03036 5.98967 7.4264 5.59363 7.4264 4.99957C7.4264 4.40551 7.03036 4.00947 6.4363 4.00947ZM4.95115 12.4253C4.35709 12.4253 3.96105 12.8214 3.96105 13.4154V15.1976C2.67392 13.7124 1.98085 11.9303 1.98085 9.95006C1.98085 9.65303 1.98085 9.356 2.07986 9.05897C2.17887 8.56392 1.78283 8.06887 1.18877 7.96986C0.693725 7.87085 0.198676 8.26689 0.0996659 8.86095C0.000656032 9.25699 0.000656128 9.55402 0.000656128 9.95006C0.000656128 12.3263 0.891745 14.6035 2.37689 16.3857H0.990755C0.396696 16.3857 0.000656128 16.7817 0.000656128 17.3758C0.000656128 17.9699 0.396696 18.3659 0.990755 18.3659H4.95115C5.24818 18.3659 5.54521 18.1679 5.74323 17.9699C5.74323 17.8709 5.84224 17.7718 5.84224 17.6728C5.84224 17.5738 5.84224 17.5738 5.84224 17.4748V17.3758V13.4154C5.94125 12.8214 5.54521 12.4253 4.95115 12.4253ZM18.8125 3.51442C19.4066 3.51442 19.8026 3.11838 19.8026 2.52432C19.8026 1.93026 19.4066 1.53422 18.8125 1.53422H14.8521C14.7531 1.53422 14.7531 1.53422 14.6541 1.53422C14.5551 1.53422 14.4561 1.63323 14.3571 1.63323C14.2581 1.73224 14.1591 1.73224 14.1591 1.83125C14.1591 1.93026 14.0601 2.02927 14.0601 2.02927C14.0601 2.12828 14.0601 2.12828 14.0601 2.22729V2.3263V6.2867C14.0601 6.88076 14.4561 7.2768 15.0502 7.2768C15.6442 7.2768 16.0403 6.88076 16.0403 6.2867V4.70254C17.3274 6.08868 18.0205 7.96986 18.0205 9.95006C18.0205 10.2471 18.0205 10.5441 17.9214 10.8412C17.8224 11.3362 18.2185 11.8313 18.8125 11.9303H18.9115C19.4066 11.9303 19.8026 11.5342 19.9016 11.0392C19.9016 10.6431 20.0007 10.3461 20.0007 9.95006C20.0007 7.57383 19.1096 5.2966 17.6244 3.51442H18.8125ZM18.1195 14.4055C18.0205 14.3065 17.9214 14.2075 17.8224 14.1085C17.7234 14.0095 17.6244 14.0095 17.5254 14.0095H17.4264H17.3274H13.367C12.7729 14.0095 12.3769 14.4055 12.3769 14.9996C12.3769 15.5936 12.7729 15.9897 13.367 15.9897H15.1492C13.763 17.2768 11.8818 17.9699 9.90165 17.9699C9.60462 17.9699 9.30759 17.9699 9.01056 17.8709C8.51551 17.7718 8.02046 18.1679 7.92145 18.7619C7.82244 19.356 8.21848 19.752 8.81254 19.8511C9.20858 19.8511 9.50561 19.9501 9.90165 19.9501C12.2779 19.9501 14.5551 19.059 16.3373 17.5738V18.861C16.3373 19.455 16.7333 19.8511 17.3274 19.8511C17.9214 19.8511 18.3175 19.455 18.3175 18.861V14.9006C18.3175 14.7025 18.2185 14.5045 18.1195 14.4055Z" fill="#333363"/>
</g>
</g>
<defs>
<filter id="filter0_i_0_537" x="0.000656128" y="0.0490723" width="23" height="19.9009" filterUnits="userSpaceOnUse" color-interpolation-filters="sRGB">
<feFlood flood-opacity="0" result="BackgroundImageFix"/>
<feBlend mode="normal" in="SourceGraphic" in2="BackgroundImageFix" result="shape"/>
<feColorMatrix in="SourceAlpha" type="matrix" values="0 0 0 0 0 0 0 0 0 0 0 0 0 0 0 0 0 0 127 0" result="hardAlpha"/>
<feOffset dx="3"/>
<feGaussianBlur stdDeviation="2.5"/>
<feComposite in2="hardAlpha" operator="arithmetic" k2="-1" k3="1"/>
<feColorMatrix type="matrix" values="0 0 0 0 0 0 0 0 0 0 0 0 0 0 0 0 0 0 0.5 0"/>
<feBlend mode="normal" in2="shape" result="effect1_innerShadow_0_537"/>
</filter>
<clipPath id="clip0_0_537">
<rect width="20" height="20" fill="white"/>
</clipPath>
</defs>
</svg>
